<?xml version="1.0" encoding="UTF-8"?>
<svg id="avocado" xmlns="http://www.w3.org/2000/svg" version="1.1" viewBox="0 0 165.3 200">
  <defs>
    <style>
      .avocado-1 {
        fill: #359400;
      }

      .avocado-1, .avocado-2, .avocado-3, .avocado-4, .avocado-5, .avocado-6 {
        stroke-width: 0px;
      }

      .avocado-2 {
        fill: #d4eb00;
      }

      .avocado-3 {
        fill: #668219;
      }

      .avocado-4 {
        fill: #c36a17;
      }

      .avocado-5 {
        fill: #95c410;
      }

      .avocado-6 {
        fill: #b2590f;
      }
    </style>
  </defs>
  <path id="avocado-peel-bg" class="avocado-3" d="M165.3,65.4c-.3-15.6-3.4-26.2-5.4-31.5h0c0-1.1,0-2.2-.1-3.4C158.5,8.5,138.2.4,123.8,0c-15.7-.5-29.2,10.6-35.6,17.4-6.4,6.8-22.9,24.6-33,34.7-10.2,10.2-30.1,13.6-41.9,33.9C1.4,106.3-4.1,125.4,3.5,149.1c7.6,23.7,35.6,52.1,69.5,49.6.3,0,.6,0,.9,0,0,0,0,0,0,0,22,3.4,56,2.9,71.3-27,8.9-17.5,10.2-31.7,11.1-53.9.9-22.1,9.4-29.2,9-52.3ZM159.8,40.7c0,.1,0,.2,0,.3,0-.1,0-.2,0-.3ZM159.6,44c0,.1,0,.3,0,.4,0-.1,0-.3,0-.4ZM159.2,47.3c0,.1,0,.2,0,.4,0-.1,0-.2,0-.4ZM158.7,50.5c0,0,0,.2,0,.3,0,0,0-.2,0-.3ZM158.1,53.6c0,0,0,.1,0,.2,0,0,0-.1,0-.2ZM153,73.8c0,.2-.1.4-.2.6,0-.2.1-.4.2-.6ZM152.2,76.9c0,.3-.2.6-.2,1,0-.3.2-.6.2-1ZM116.7,183.1s0,0,0,0c0,0,0,0,0,0ZM122.3,178.3s0,0-.1.1c0,0,0,0,.1-.1ZM120.5,180s0,0,0,0c0,0,0,0,0,0ZM118.7,181.6s0,0,0,0c0,0,0,0,0,0ZM123.9,176.7c0,0,.1-.1.2-.2,0,0-.1.1-.2.2ZM136.2,159.4c.2-.4.4-.9.7-1.4-.2.5-.4.9-.7,1.4ZM125.5,175c0,0,.1-.2.2-.2,0,0-.1.2-.2.2ZM127.1,173.2c0-.1.2-.2.2-.3,0,.1-.2.2-.2.3ZM128.6,171.4c0-.1.2-.3.3-.4,0,.1-.2.3-.3.4ZM130,169.5c.1-.2.2-.3.3-.5-.1.2-.2.3-.3.5ZM131.4,167.6c.1-.2.3-.4.4-.6-.1.2-.2.4-.4.6ZM132.7,165.6c.1-.2.3-.5.4-.7-.1.2-.3.5-.4.7ZM133.9,163.6c.2-.3.3-.6.5-.8-.2.3-.3.6-.5.8ZM135.1,161.5c.2-.3.4-.7.5-1-.2.3-.4.7-.5,1ZM137.2,157.2c.3-.7.7-1.5,1-2.2-.3.7-.6,1.5-1,2.2ZM151.4,80.4c0,.3-.2.7-.2,1,0-.4.2-.7.2-1ZM159.9,37.6c0,0,0-.2,0-.3,0,0,0,.2,0,.3Z"/>
  <path id="avocado-half" class="avocado-1" d="M162.6,67.5c-.2-10-1.6-17.9-3.1-23.5-1.4,14.3-6.1,25.1-9.1,41.2-3.8,20.8-2.1,46.2-12.3,69.9-8.2,19.2-23.7,34.3-47.4,40.6,19.1.3,41.3-4.9,52.7-27.1,8.5-16.6,9.7-30.2,10.6-51.3.9-21.1,9-27.8,8.5-49.8Z"/>
  <path id="acocado-rice" class="avocado-5" d="M121.7,4.8c-14.9-.4-27.8,10.1-33.9,16.5s-21.8,23.4-31.4,33.1c-9.7,9.7-28.6,12.9-39.9,32.3C5.2,106,0,124.1,7.2,146.7c7.3,22.6,33.9,49.6,66.1,47.2s52.4-18.9,62.1-41.5c9.7-22.6,8.1-46.8,11.7-66.5,3.6-19.8,10.1-31,8.9-52-1.2-21-20.6-28.6-34.3-29Z"/>
  <path id="avocado-rice-small" class="avocado-2" d="M111.8,27.3c-11.4-.3-21.2,7.7-25.8,12.6-4.6,4.9-16.6,17.8-24,25.2s-21.8,9.8-30.4,24.6c-8.6,14.7-12.6,28.6-7.1,45.8,5.5,17.2,25.8,37.8,50.4,35.9,24.6-1.8,39.9-14.4,47.3-31.6,7.4-17.2,6.1-35.6,8.9-50.7s7.7-23.7,6.8-39.6-15.7-21.8-26.1-22.1Z"/>
  <path id="avocado-seed" class="avocado-4" d="M101,124.5c0,15.9-12.9,28.9-28.9,28.9s-28.9-12.9-28.9-28.9,12.9-28.9,28.9-28.9,28.9,12.9,28.9,28.9Z"/>
  <path id="avocado-seed-shadow" class="avocado-6" d="M101,124.5c0,15.9-12.9,28.9-28.9,28.9s-24.9-9.3-28-21.8c.9,2.7,2.3,5.3,4.2,7.5,8.8,10.3,25.1,10.8,36.5,1.1,11.4-9.7,13.5-25.9,4.7-36.2-8.7-10.2-24.9-10.8-36.3-1.3,5.1-4.4,11.6-7,18.8-7,15.9,0,28.9,12.9,28.9,28.9Z"/>
</svg>