<?xml version="1.0" encoding="UTF-8"?>
<svg id="kiwi" xmlns="http://www.w3.org/2000/svg" version="1.1" viewBox="0 0 216.3 216.3">
  <defs>
    <style>
      .kiwi-1 {
        fill: #5d4037;
      }

      .kiwi-1, .kiwi-2, .kiwi-3, .kiwi-4, .kiwi-5 {
        stroke-width: 0px;
      }

      .kiwi-2 {
        fill: #8bc34a;
      }

      .kiwi-3 {
        fill: #689f38;
      }

      .kiwi-4 {
        fill: #795548;
      }

      .kiwi-5 {
        fill: #e6ee9c;
      }
     
    </style>
  </defs>
  <path id="background" class="kiwi-4" d="M40.1,40.1C-6.3,86.5-13.5,154.6,24.1,192.2c37.6,37.6,105.7,30.4,152.1-16,46.4-46.4,53.6-114.5,16-152.1C154.6-13.5,86.5-6.3,40.1,40.1h0Z"/>
  <path id="green-back" class="kiwi-2" d="M130.7,11.3c21.4,0,39.9,7.2,53.5,20.8,33.1,33.1,25.9,94.2-16,136.1-23.4,23.4-53.5,36.8-82.6,36.8s-39.9-7.2-53.5-20.8c-15.7-15.7-22.9-38.3-20.2-63.5,2.8-26.2,15.6-51.9,36.3-72.5,23.4-23.4,53.5-36.8,82.6-36.8"/>
  <path id="green-kiwi" class="kiwi-3" d="M39.3,153.1c-2.9-5.5-.8-12.3,4.8-15.2,0,0,0,0,0,0,5.6-2.9,31.7-7.2,31.7-7.2,0,0-15.8,24.5-21.3,27.4-4.4,2.2-9.7,1.4-13.2-2-.8-.8-1.5-1.8-2-2.8h0ZM59.4,162.8c2.8-5.6,25.8-22.7,25.8-22.7,0,0-2.8,27.4-5.7,32.9-2.8,5.6-9.6,7.8-15.2,5,0,0,0,0,0,0h0c-5.6-2.8-7.8-9.5-5-15.1,0,0,0,0,0,0h0ZM32.5,119.3c.4-6.2,5.7-11,12-10.7,6.2.3,27.6,8.7,27.6,8.7,0,0-22.7,14.3-29,14-2.8-.2-5.4-1.3-7.3-3.3-2.3-2.3-3.5-5.4-3.3-8.6h0ZM86.2,174.1c-.4-6.2,14.7-29.9,14.7-29.9,0,0,7.5,22.3,7.9,28.5.4,6.3-4.4,11.6-10.6,12-3.2.2-6.4-1-8.7-3.3-2-2-3.1-4.6-3.2-7.3h0ZM41.1,87.3c2.7-5.6,9.5-7.9,15.1-5.2,0,0,0,0,0,0,5.6,2.7,18.5,19.8,18.5,19.8,0,0-22.8,3.3-28.4.6-5.6-2.7-8-9.5-5.3-15.1,0,0,0,0,0,0h0ZM115,170.9c-2.8-5.6.6-29.8.6-29.8,0,0,17.1,14.2,19.8,19.8,2.7,5.6.4,12.4-5.2,15.2-4.3,2.1-9.5,1.2-13-2.2-.9-.9-1.6-1.9-2.2-3h0ZM60,60.9c4.4-4.4,11.6-4.4,16,0,4.4,4.4,9,25,9,25,0,0-20.6-4.6-25-9-4.4-4.4-4.4-11.6,0-16h0ZM130.8,130.8s21.4,5.7,25.8,10.1c4.4,4.4,4.4,11.6,0,16h-.1c0,.1,0,.2,0,.2-4.4,4.4-11.6,4.4-16,0-4.4-4.4-9.6-26.4-9.6-26.4h0ZM81.1,57.1c-2.7-5.6-.4-12.4,5.2-15.2,0,0,0,0,0,0,5.6-2.7,12.4-.4,15.1,5.2,0,0,0,0,0,0,2.7,5.6-1,28.1-1,28.1,0,0-17.4-13.2-19.4-18.2h0ZM170.3,115.4c5.6,2.7,8,9.4,5.3,15,0,0,0,0,0,0-2.7,5.6-9.5,8-15.1,5.3-6-2.9-19.1-20.6-19.1-20.6,0,0,23.4-2.5,29,.2h0ZM107.7,45.3c-.4-6.2,4.3-11.6,10.5-12,0,0,0,0,0,0h0c6.2-.4,11.5,4.3,12,10.5,0,0,0,0,0,.1.4,6.2-13.1,28.2-13.1,28.2,0,0-9.3-24-9.4-26.9h0ZM144.2,99.4s23-13.1,29.2-12.8c6.2.4,11,5.7,10.6,11.9-.3,6.2-6,10.2-11.9,10.7-5.9.5-28-9.8-28-9.8ZM136.9,44.8c3-5.5,9.9-7.4,15.4-4.4,5.2,2.9,7.3,9.3,4.8,14.6-2.8,5.6-26.1,19.8-26.1,19.8,0,0,3.7-25.5,6-30.1ZM161.9,59.9c5.6-2.9,12.4-.7,15.3,4.8,2.9,5.6.7,12.4-4.9,15.3-4.5,2.3-32.8,4.3-32.8,4.3,0,0,16.8-21.6,22.4-24.4Z"/>
  <path id="kiwi-or" class="kiwi-1" d="M143.8,144c2.4-2.4,2.4-6,.2-8.2-1.3-1.3-6.9-3.6-13.7-5.8,2.1,7,4.3,12.7,5.5,14,2.2,2.2,5.8,2.2,8,0,0,0,0,0,0,0ZM94.7,162.9c1.1,1.1,2.8,1.8,4.4,1.7,3.1-.2,5.5-2.9,5.3-6,0,0,0,0,0,0-.1-2.3-1.8-8.6-3.8-15.2-4.1,7.2-7.3,13.8-7.5,16,0,1.3.6,2.6,1.6,3.5h0ZM123.5,159.4c2.8-1.3,3.9-4.8,2.6-7.6-.1-.2-1-1.9-5.4-6.2-1.6-1.6-3.2-3.1-4.9-4.6-.6,7.7-.6,14.2,0,15.9.3.5.6,1.1,1.1,1.5,1.7,1.7,4.3,2.1,6.5,1h0ZM157.1,115.6c-1.7-.7-8-.9-15.5-.5,2.1,2.5,4.4,5.2,6.6,7.3,2.7,2.7,3.8,3.3,4,3.4,2.8,1.3,6.2.1,7.6-2.7,1.4-2.8.2-6.2-2.6-7.5,0,0,0,0,0,0ZM86.3,138.9c-6.8,5.5-12.5,10.6-13.5,12.5-1.4,2.7-.4,6.1,2.4,7.6,0,0,0,0,0,0h0c2.8,1.4,6.2.3,7.6-2.4,0,0,0,0,0,0,1-1.9,2.3-9.2,3.5-17.6h0ZM155.4,82.5c2.7-1.4,3.8-4.8,2.4-7.6-1.5-2.7-4.8-3.8-7.6-2.4-1.8,1-6.8,6.3-12.2,12.6,8.4-.8,15.6-1.8,17.5-2.6h0ZM157.8,104.1c3.2-.2,6.5-2.2,6.6-5.3.2-3.1-2.2-5.8-5.3-6-2.1,0-8.7,2.9-15.9,6.6,6.6,2.7,12.7,4.8,14.6,4.7h0ZM58.8,143.4c1.7,1.7,4.4,2.1,6.6,1,1.9-1.1,6.6-7.2,11.7-14.3-8,1.6-14.9,3.2-16.9,4.3-1.3.7-2.3,1.8-2.8,3.2-.5,1.4-.3,3,.4,4.4.3.5.6,1,1,1.4ZM72.8,81.5c1.3,1.2,6.7,3.3,13.2,5.2-1.9-6.5-3.9-11.9-5.2-13.2-2.2-2.2-5.8-2.2-8,0-2.2,2.2-2.2,5.8,0,8h0ZM60.8,102.7c1.6.6,7.7.6,15,0-2-2.4-4-4.6-6.2-6.8-2.7-2.7-3.8-3.3-4-3.4-2.8-1.4-6.2-.3-7.6,2.5,0,0,0,0,0,0-1.1,2.2-.6,4.8,1.1,6.5.4.4,1,.8,1.7,1.2h0ZM130.9,74.6c6.7-4.6,12.4-9,13.5-10.8,1.4-2.8.3-6.1-2.4-7.5,0,0,0,0,0,0-2.8-1.4-6.2-.3-7.6,2.5-.8,1.6-2.1,8.2-3.4,15.9ZM90.5,65.8v.2c0,0,.2.2.2.2,0,0,.5,1,2.9,3.3,2,2,4.6,4.3,7,6.3.7-7.2.8-13.3.2-15-.3-.5-.6-1-1.1-1.5-1.7-1.7-4.3-2.1-6.4-1.1-2.8,1.4-4,4.8-2.7,7.6,0,0,0,0,0,0h0ZM116.8,72.4c3.6-6.6,6.4-12.7,6.4-14.8-.2-3.1-2.9-5.4-6-5.2h-.7c-1.2.3-2.4.9-3.2,1.9-1,1.1-1.5,2.5-1.4,3.9.3,1.6,2.4,7.4,4.9,14.2h0ZM58.6,113c-3.1-.2-5.8,2.2-6,5.4,0,1.6.5,3.2,1.7,4.3,1,1,2.3,1.6,3.6,1.7,2.1-.1,8.6-3.2,15.5-7.1-6.4-2.2-12.5-4.1-14.8-4.2h0Z"/>
  <path id="kiwi-path" class="kiwi-5" d="M85.5,85.5c-15.5,15.5-17.9,38.2-5.4,50.7,12.5,12.5,35.2,10.2,50.7-5.3h0c15.5-15.5,17.9-38.2,5.3-50.7-12.5-12.5-35.2-10.1-50.7,5.3h0Z"/>
</svg>