<?xml version="1.0" encoding="UTF-8"?>
<svg id="orange" xmlns="http://www.w3.org/2000/svg" version="1.1" viewBox="0 0 204.2 195.6">
  <defs>
    <style>
      .orange-1 {
        fill: #fff;
      }

      .orange-1, .orange-2 {
        opacity: .5;
      }

      .orange-1, .orange-2, .orange-3 {
        stroke-width: 0px;
      }

      .orange-2 {
        fill: #f57f20;
      }

      .orange-3 {
        fill: #f7931e;
      }
     
      

    </style>
  </defs>
  <path id="background-2" class="orange-2" d="M204.2,97.8c0,54-43.8,97.8-97.8,97.8S8.6,151.8,8.6,97.8,52.4,0,106.4,0s97.8,43.8,97.8,97.8Z"/>
  <path id="white-ste" class="orange-1" d="M199.7,97.7c0,51.5-41.8,93.3-93.3,93.3S13.1,149.2,13.1,97.7,54.9,4.3,106.4,4.3s93.3,41.8,93.3,93.3Z"/>
  <path id="slices-of-orange" class="orange-3" d="M102.7,14.8c15.3-.9,26.7,5,31.1,7.6l-27.3,75.3-28.1-75.3c4.3-2.6,12.9-6.9,24.4-7.6ZM141.5,23.5l-35,72.4,73.3-32.3c-1.2-5-4.7-17.3-16-27.7-8.5-7.8-17.4-11-22.3-12.4ZM182.2,124.9c2.2-3.4,9.5-15.6,7.2-31.9-1.6-11.1-6.8-18.7-9.6-22.2l-68.6,26.9c23.7,9,47.3,18.1,71,27.1ZM111.3,102.2l27,67.1c3.8-.2,16.8-1.6,28-12.1,10.1-9.5,12.8-20.7,13.6-24.6l-68.6-30.4ZM106,102.2l-27.7,70c3.8,2.5,14.2,8.5,28.6,8.2,13.4-.2,23-5.7,26.8-8.2l-27.7-70ZM43.2,152.9c10.7,13.7,26.1,16,29.5,16.4l29.5-67.1-68.1,27c.3,4.2,1.7,14.2,9.2,23.7ZM30.6,70.8c-3,3.1-7.5,8.7-9.7,16.9-5,19.3,8.1,35.3,9.7,37.2l71.5-27c-23.8-9-47.6-18-71.5-27ZM49,37c-9.3,8.3-14.3,17.2-16.9,22.7l70,33.3-30.9-69.5c-5.5,2.1-13.9,6-22.2,13.5Z"/>
  <path id="the-path-of-orange" class="orange-3" d="M0,74.6"/>
</svg>