<?xml version="1.0" encoding="UTF-8"?>
<svg id="peach" xmlns="http://www.w3.org/2000/svg" version="1.1" viewBox="0 0 177.8 198.7">
  <defs>
    <style>
      .peach-1 {
        fill: #f7941d;
      }

      .peach-1, .peach-2, .peach-3, .peach-4 {
        stroke-width: 0px;
      }

      .peach-2 {
        fill: #ef4136;
      }

      .peach-3 {
        fill: #f79b37;
      }

      .peach-5 {
        fill: none;
        stroke: #8dc63f;
        stroke-miterlimit: 10;
        stroke-width: .5px;
      }

      .peach-4 {
        fill: #005e2a;
      }
    </style>
  </defs>
  <path id="peach-bg" class="peach-1" d="M88.9,72.4s18.5-10.4,35.2-10.4,28.9,7.2,37,14.9c8.1,7.7,16.2,23.9,16.7,40.1s-7.7,32.5-16.7,42.4c-9,9.9-24.4,21.3-34.9,26.7s-37.3,12.6-37.3,12.6v-126.3ZM88.9,72.4s-18.5-10.4-35.2-10.4c-16.7,0-28.9,7.2-37,14.9C8.6,84.6.5,100.8,0,117.1c-.5,16.2,7.7,32.5,16.7,42.4,9,9.9,24.4,21.3,34.9,26.7s37.3,12.6,37.3,12.6v-126.3Z"/>
  <path id="peach-bg-small" class="peach-3" d="M88.9,75.4s17.5-9.8,33.2-9.8,27.2,6.8,34.9,14.1,15.3,22.7,15.8,38.1-7.2,30.8-15.8,40.2c-8.5,9.4-23,20.3-32.9,25.3-11.4,5.8-35.2,11.9-35.2,11.9v-119.9ZM88.9,75.4s-17.5-9.8-33.2-9.8c-15.8,0-27.2,6.8-34.9,14.1-7.7,7.3-15.3,22.7-15.8,38.1-.4,15.4,7.2,30.8,15.8,40.2s23,20.3,32.9,25.3c11.4,5.8,35.2,11.9,35.2,11.9v-119.9Z"/>
  <path id="peach-shadow" class="peach-2" d="M88.2,72.2s-21.5,6.8-30.7,24.2-3.5,43.3-3.5,43.3c0,0-5.4-16.9,8.8-41.7,8-14,25.3-25.8,25.3-25.8Z"/>
  <path id="leaves" class="peach-4" d="M88.2,72.2s-1.8-35.7,17-54C124,0,159.1,3,159.1,3c0,0,6.6,24.4-10.2,48.3-19.1,27.2-60.7,20.9-60.7,20.9ZM88.1,72.2s-35.7,1.8-54-17C15.8,36.4,18.8,1.3,18.8,1.3c0,0,24.4-6.6,48.3,10.2s20.9,60.7,20.9,60.7Z"/>
  <path id="leaf-bones" class="peach-5" d="M88.2,72.2L159.1,3M144.9,3.1v13.7h15.5M137.6,4v20h22.2M130.7,5.3v25.4h27.7M123.7,7.4v30.3h32.6M116,10.6v33.8h37.2M108.6,15.3v37.1h39M101.4,22.5v36.9h40.2M94.9,33.8v31.9h37.1M151.2,2.8v7.9h9M88.1,72.2L18.8,1.3M19,15.5h13.7S32.7,0,32.7,0M19.8,22.8h20s0-22.2,0-22.2M21.2,29.7h25.4s0-27.7,0-27.7M23.2,36.7h30.3s0-32.6,0-32.6M26.5,44.4h33.8s0-37.2,0-37.2M31.2,51.8h37.1s0-39,0-39M38.3,59h36.9s0-40.2,0-40.2M49.7,65.6h31.9s0-37.1,0-37.1M18.7,9.2h7.9s0-9,0-9"/>
</svg>