<?xml version="1.0" encoding="UTF-8"?>
<svg id="watermelon" xmlns="http://www.w3.org/2000/svg" version="1.1" viewBox="0 0 248.8 248.8">
  <defs>
    <style>
      .watermelon-1 {
        fill: #ff1744;
      }

      .watermelon-1, .watermelon-2, .watermelon-3, .watermelon-4 {
        stroke-width: 0px;
      }

      .watermelon-2 {
        fill: #5d4037;
      }

      .watermelon-3 {
        fill: #558b2f;
      }

      .watermelon-4 {
        fill: #e6ee9c;
      }
     </style>
  </defs>
  <path id="green-part" class="watermelon-4" d="M4.7,201.5c54.3,54.3,142.4,54.3,196.7,0,54.3-54.3,54.3-142.4,0-196.8h0L4.7,201.5Z"/>
  <path id="the-sweet-part" class="watermelon-1" d="M182.7,182.7c44-44,44-115.3,0-159.3L23.4,182.7c44,44,115.3,44,159.2,0Z"/>
  <path id="black-melon" class="watermelon-2" d="M161.6,147c3.7,4.1,3.4,10.3-.6,14-3.8,3.5-9.6,3.5-13.4,0-3.9-3.9-7-21.1-7-21.1,0,0,17.2,3.1,21.1,7h0ZM174.5,111.6c5.4,1.1,8.8,6.4,7.7,11.8-1.1,5.1-6,8.5-11.1,7.8-5.4-.9-20.3-13.7-20.3-13.7,0,0,18.4-6.9,23.7-5.9h0ZM171.8,74.3c5.4-.9,10.5,2.8,11.4,8.2,0,0,0,0,0,0,.9,5.4-2.8,10.5-8.2,11.4,0,0,0,0,0,0-5.4.9-23.2-6.3-23.2-6.3,0,0,14.7-12.4,20.1-13.3ZM112.3,173.9c1,5.4,6.1,9,11.5,8.1,5.4-1,9-6.1,8-11.5,0,0,0,0,0,0-1-5.4-13.7-20.3-13.7-20.3,0,0-6.8,18.3-5.9,23.7h0ZM74.4,171.2c-.7,5.4,3.1,10.4,8.6,11.1,5.2.7,10-2.8,11-8,.9-5.4-6.3-23.3-6.3-23.3,0,0-12.4,14.7-13.3,20.1Z"/>
  <path id="the-background-part" class="watermelon-3" d="M103,248.8c-37.3,0-74.6-14.2-103-42.6l9.4-9.4c51.7,51.7,135.7,51.7,187.3,0,25-25.1,38.8-58.3,38.8-93.7,0-35.2-13.9-68.9-38.8-93.7l9.4-9.4c27.4,27.3,42.8,64.4,42.7,103.1,0,38.9-15.2,75.5-42.7,103.1-28.4,28.4-65.7,42.6-103,42.6Z"/>
</svg>